<mxfile host="65bd71144e">
    <diagram id="e6ERDA6qeM3eLg_nKpx5" name="Page-1">
        <mxGraphModel dx="1152" dy="534" grid="1" gridSize="10" guides="1" tooltips="1" connect="1" arrows="1" fold="1" page="1" pageScale="1" pageWidth="827" pageHeight="1169" math="0" shadow="0">
            <root>
                <mxCell id="0"/>
                <mxCell id="1" parent="0"/>
                <mxCell id="2" value="" style="edgeStyle=none;html=1;fontSize=28;" edge="1" parent="1" target="4">
                    <mxGeometry relative="1" as="geometry">
                        <mxPoint x="414" y="100" as="sourcePoint"/>
                    </mxGeometry>
                </mxCell>
                <mxCell id="3" value="" style="edgeStyle=none;html=1;fontSize=28;" edge="1" parent="1" source="4" target="5">
                    <mxGeometry relative="1" as="geometry"/>
                </mxCell>
                <mxCell id="4" value="n" style="shape=parallelogram;perimeter=parallelogramPerimeter;whiteSpace=wrap;html=1;fixedSize=1;fontSize=28;fillColor=#e3c800;fontColor=#000000;strokeColor=#B09500;" vertex="1" parent="1">
                    <mxGeometry x="354" y="140" width="120" height="60" as="geometry"/>
                </mxCell>
                <mxCell id="5" value="1&amp;lt;= n/1000 &amp;lt;= 9.999" style="rhombus;whiteSpace=wrap;html=1;fontSize=28;fillColor=#647687;fontColor=#ffffff;strokeColor=#314354;" vertex="1" parent="1">
                    <mxGeometry x="300" y="260" width="230" height="220" as="geometry"/>
                </mxCell>
                <mxCell id="6" value="" style="edgeStyle=segmentEdgeStyle;endArrow=classic;html=1;fontSize=28;" edge="1" parent="1">
                    <mxGeometry width="50" height="50" relative="1" as="geometry">
                        <mxPoint x="530" y="370" as="sourcePoint"/>
                        <mxPoint x="716" y="450" as="targetPoint"/>
                    </mxGeometry>
                </mxCell>
                <mxCell id="11" value="" style="edgeStyle=segmentEdgeStyle;endArrow=classic;html=1;fontSize=28;" edge="1" parent="1">
                    <mxGeometry width="50" height="50" relative="1" as="geometry">
                        <mxPoint x="300" y="370" as="sourcePoint"/>
                        <mxPoint x="130" y="450" as="targetPoint"/>
                    </mxGeometry>
                </mxCell>
                <mxCell id="15" value="El numero ingresado es de cuatro cifras" style="shape=document;whiteSpace=wrap;html=1;boundedLbl=1;fontSize=28;fillColor=#008a00;fontColor=#ffffff;strokeColor=#005700;" vertex="1" parent="1">
                    <mxGeometry y="450" width="280" height="120" as="geometry"/>
                </mxCell>
                <mxCell id="17" value="" style="edgeStyle=segmentEdgeStyle;endArrow=classic;html=1;fontSize=28;entryX=0.5;entryY=0;entryDx=0;entryDy=0;" edge="1" parent="1" target="21">
                    <mxGeometry width="50" height="50" relative="1" as="geometry">
                        <mxPoint x="80" y="570" as="sourcePoint"/>
                        <mxPoint x="420" y="740" as="targetPoint"/>
                        <Array as="points">
                            <mxPoint x="80" y="670"/>
                            <mxPoint x="200" y="670"/>
                            <mxPoint x="200" y="740"/>
                            <mxPoint x="420" y="740"/>
                        </Array>
                    </mxGeometry>
                </mxCell>
                <mxCell id="19" value="" style="edgeStyle=segmentEdgeStyle;endArrow=classic;html=1;fontSize=28;exitX=0.818;exitY=0.725;exitDx=0;exitDy=0;exitPerimeter=0;" edge="1" parent="1" source="29">
                    <mxGeometry width="50" height="50" relative="1" as="geometry">
                        <mxPoint x="760" y="570" as="sourcePoint"/>
                        <mxPoint x="420" y="790" as="targetPoint"/>
                        <Array as="points">
                            <mxPoint x="759" y="670"/>
                            <mxPoint x="640" y="670"/>
                            <mxPoint x="640" y="740"/>
                            <mxPoint x="420" y="740"/>
                        </Array>
                    </mxGeometry>
                </mxCell>
                <mxCell id="21" value="fin" style="ellipse;whiteSpace=wrap;html=1;fontSize=28;fillColor=#1ba1e2;fontColor=#ffffff;strokeColor=#006EAF;" vertex="1" parent="1">
                    <mxGeometry x="360" y="800" width="120" height="80" as="geometry"/>
                </mxCell>
                <mxCell id="22" value="F" style="text;html=1;strokeColor=none;fillColor=none;align=center;verticalAlign=middle;whiteSpace=wrap;rounded=0;fontSize=28;" vertex="1" parent="1">
                    <mxGeometry x="200" y="340" width="60" height="30" as="geometry"/>
                </mxCell>
                <mxCell id="25" value="V" style="text;html=1;strokeColor=none;fillColor=none;align=center;verticalAlign=middle;whiteSpace=wrap;rounded=0;fontSize=28;" vertex="1" parent="1">
                    <mxGeometry x="590" y="340" width="60" height="30" as="geometry"/>
                </mxCell>
                <mxCell id="28" value="inicio" style="ellipse;whiteSpace=wrap;html=1;fontSize=28;fillColor=#a20025;fontColor=#ffffff;strokeColor=#6F0000;" vertex="1" parent="1">
                    <mxGeometry x="354" y="20" width="120" height="80" as="geometry"/>
                </mxCell>
                <mxCell id="29" value="El numero ingresado es de cuatro cifras" style="shape=document;whiteSpace=wrap;html=1;boundedLbl=1;fontSize=28;fillColor=#008a00;fontColor=#ffffff;strokeColor=#005700;" vertex="1" parent="1">
                    <mxGeometry x="530" y="450" width="280" height="120" as="geometry"/>
                </mxCell>
            </root>
        </mxGraphModel>
    </diagram>
</mxfile>